<svg width="2360" height="864" viewBox="0 0 2360 864" fill="none" xmlns="http://www.w3.org/2000/svg">
<path opacity="0.6" d="M504.5 80.5312C918.5 -77.969 1446 142.531 1787 35.0319C2128 -72.4674 2528 939.531 1859.5 770.031C1191 600.531 1135.5 840.031 504.5 770.031C-126.5 700.031 90.4996 239.031 504.5 80.5312Z" fill="#E26D38"/>
<path opacity="0.6" d="M643.012 95.5312C1057.01 -62.969 1584.51 157.531 1925.51 50.0319C2266.51 -57.4674 2666.51 954.531 1998.01 785.031C1329.51 615.531 1274.01 855.031 643.013 785.031C12.0127 715.031 229.012 254.031 643.012 95.5312Z" fill="#E26D38"/>
<path opacity="0.6" d="M1717.45 785.907C1296.68 925.444 779.74 681.217 434.212 773.121C88.6837 865.024 -264.951 -164.094 395.162 35.5877C1055.27 235.27 1121.59 -1.46295 1748.76 97.1188C2375.93 195.701 2138.22 646.371 1717.45 785.907Z" fill="#E26D38"/>
</svg>
